<svg xmlns="http://www.w3.org/2000/svg" viewBox="0 0 138 32">
  <path d="M4.042 30.316v-15.926h-3.88v-4.568h5.619l-1.738 1.576v-2.951c0-2.668 0.687-4.675 2.061-6.023 1.401-1.347 3.49-2.021 6.265-2.021 0.62 0 1.28 0.040 1.981 0.121 0.728 0.081 1.361 0.243 1.9 0.485v4.689c-0.377-0.135-0.808-0.229-1.293-0.283-0.485-0.081-0.957-0.121-1.415-0.121-0.62 0-1.199 0.108-1.738 0.323-0.512 0.216-0.93 0.579-1.253 1.091-0.296 0.485-0.445 1.145-0.445 1.981v2.142l-0.849-1.011h6.023v4.568h-5.133v15.926h-6.104zM26.517 30.76c-2.183 0-4.083-0.431-5.699-1.293-1.59-0.889-2.829-2.129-3.719-3.719-0.862-1.59-1.294-3.49-1.294-5.699 0-2.183 0.431-4.069 1.294-5.659 0.889-1.59 2.129-2.816 3.719-3.678 1.617-0.862 3.517-1.293 5.699-1.293s4.083 0.431 5.699 1.293c1.617 0.862 2.856 2.088 3.719 3.678 0.889 1.59 1.334 3.476 1.334 5.659 0 2.21-0.445 4.109-1.334 5.699-0.862 1.59-2.102 2.829-3.719 3.719-1.617 0.862-3.517 1.293-5.699 1.293zM26.517 26.152c1.401 0 2.506-0.499 3.315-1.496 0.835-0.997 1.253-2.533 1.253-4.608s-0.418-3.597-1.253-4.568c-0.808-0.97-1.913-1.455-3.315-1.455s-2.52 0.485-3.355 1.455c-0.808 0.97-1.213 2.493-1.213 4.568s0.404 3.611 1.213 4.608c0.835 0.997 1.954 1.496 3.355 1.496zM50.103 30.76c-2.183 0-4.083-0.431-5.699-1.293-1.59-0.889-2.829-2.129-3.719-3.719-0.862-1.59-1.293-3.49-1.293-5.699 0-2.183 0.431-4.069 1.293-5.659 0.889-1.59 2.129-2.816 3.719-3.678 1.617-0.862 3.517-1.293 5.699-1.293s4.083 0.431 5.699 1.293c1.617 0.862 2.856 2.088 3.719 3.678 0.889 1.59 1.334 3.476 1.334 5.659 0 2.21-0.445 4.109-1.334 5.699-0.862 1.59-2.102 2.829-3.719 3.719-1.617 0.862-3.517 1.293-5.699 1.293zM50.103 26.152c1.401 0 2.506-0.499 3.315-1.496 0.835-0.997 1.253-2.533 1.253-4.608s-0.418-3.597-1.253-4.568c-0.808-0.97-1.913-1.455-3.315-1.455s-2.52 0.485-3.355 1.455c-0.808 0.97-1.213 2.493-1.213 4.568s0.404 3.611 1.213 4.608c0.835 0.997 1.954 1.496 3.355 1.496zM72.032 30.76c-1.779 0-3.355-0.431-4.729-1.293-1.347-0.862-2.412-2.088-3.193-3.678-0.755-1.59-1.132-3.503-1.132-5.74 0-2.21 0.377-4.109 1.132-5.699s1.819-2.803 3.193-3.638c1.374-0.862 2.951-1.293 4.729-1.293 1.617 0 3.059 0.391 4.325 1.172 1.293 0.755 2.156 1.779 2.587 3.072h-0.525v-13.096h6.104v29.75h-6.023v-4.002h0.525c-0.431 1.347-1.293 2.425-2.587 3.234s-2.762 1.213-4.406 1.213zM73.851 26.152c1.401 0 2.533-0.499 3.395-1.496s1.293-2.533 1.293-4.608c0-2.075-0.431-3.597-1.293-4.568s-1.994-1.455-3.395-1.455c-1.401 0-2.547 0.485-3.436 1.455-0.862 0.97-1.293 2.493-1.293 4.568s0.431 3.611 1.293 4.608c0.889 0.997 2.035 1.496 3.436 1.496zM88.72 30.316v-20.493h6.104v20.493h-6.104zM88.477 6.467v-5.699h6.548v5.699h-6.548zM109.311 30.76c-3.557 0-6.333-0.957-8.327-2.87s-2.991-4.514-2.991-7.801c0-2.129 0.418-3.988 1.253-5.578 0.862-1.59 2.048-2.829 3.557-3.719 1.536-0.916 3.328-1.374 5.376-1.374 2.021 0 3.705 0.431 5.053 1.293 1.374 0.862 2.398 2.075 3.072 3.638 0.701 1.536 1.051 3.328 1.051 5.376v1.415h-14.349v-3.032h9.903l-0.687 0.566c0-1.698-0.35-2.978-1.051-3.84-0.674-0.889-1.657-1.334-2.951-1.334-1.428 0-2.533 0.525-3.315 1.576-0.755 1.051-1.132 2.56-1.132 4.527v0.647c0 1.994 0.485 3.476 1.455 4.446 0.997 0.97 2.425 1.455 4.285 1.455 1.105 0 2.142-0.135 3.112-0.404 0.997-0.296 1.94-0.755 2.829-1.374l1.698 4.042c-1.024 0.755-2.21 1.334-3.557 1.738-1.32 0.404-2.749 0.606-4.285 0.606zM127.977 30.76c-1.832 0-3.503-0.202-5.012-0.606s-2.789-0.97-3.84-1.698l1.576-4.042c1.051 0.647 2.21 1.159 3.476 1.536 1.293 0.377 2.573 0.566 3.84 0.566 1.186 0 2.061-0.189 2.627-0.566s0.849-0.889 0.849-1.536c0-0.539-0.189-0.957-0.566-1.253-0.35-0.296-0.903-0.512-1.657-0.647l-4.163-0.768c-1.752-0.35-3.085-0.997-4.002-1.94s-1.374-2.169-1.374-3.678c0-1.32 0.35-2.479 1.051-3.476 0.728-1.024 1.765-1.819 3.112-2.385s2.924-0.849 4.729-0.849c1.536 0 2.991 0.189 4.365 0.566s2.547 0.957 3.517 1.738l-1.657 3.921c-0.835-0.62-1.805-1.118-2.91-1.496-1.078-0.377-2.115-0.566-3.112-0.566-1.293 0-2.223 0.216-2.789 0.647-0.566 0.404-0.849 0.93-0.849 1.576 0 0.485 0.162 0.889 0.485 1.213 0.35 0.323 0.876 0.566 1.576 0.728l4.204 0.768c1.805 0.323 3.18 0.93 4.123 1.819s1.415 2.115 1.415 3.678c0 1.428-0.377 2.641-1.132 3.638s-1.819 1.765-3.193 2.304c-1.347 0.539-2.91 0.808-4.689 0.808z" fill="currentColor" />
</svg>
