<svg xmlns="http://www.w3.org/2000/svg" viewBox="0 0 32 32">
  <path d="M31.68 9.507s-.32-2.311-1.28-3.302c-1.173-1.321-2.56-1.321-3.2-1.431-4.48-.33-11.2-.33-11.2-.33s-6.72 0-11.2.33c-.64.11-2.027.11-3.2 1.431C.64 7.195.32 9.507.32 9.507S0 12.148 0 14.79v2.421c0 2.641.32 5.393.32 5.393s.32 2.311 1.28 3.302c1.173 1.321 2.773 1.321 3.52 1.431 2.56.11 10.88.22 10.88.22s6.72 0 11.2-.33c.64-.11 2.027-.11 3.2-1.431.96-.99 1.28-3.302 1.28-3.302s.32-2.641.32-5.283V14.79c0-2.641-.32-5.283-.32-5.283zM12.693 20.292v-9.244l8.64 4.622-8.64 4.622z" fill="currentColor" />
</svg>
